<svg xmlns="http://www.w3.org/2000/svg" xmlns:xlink="http://www.w3.org/1999/xlink" aria-label="Goodreads" role="img"  viewBox="0 0 187 100" ><path fill-rule="evenodd" clip-rule="evenodd" d="M79.492 82.632v-4.598h-.216l-.063.074c-2.5 2.967-4.592 5.45-9.6 5.45-9.184 0-12.463-11.05-12.463-29.896 0-19.075 4.262-29.644 13.553-29.644 3.74 0 6.483 1.95 8.03 4.132h.214V.854H91.64v81.778H79.492zm-.545-10.574v-37.24c-.548-1.037-1.87-1.844-3.512-1.844-3.74 0-4.732 2.413-4.732 20.574 0 17.709.663 20.349 4.403 20.349 1.867 0 3.183-.802 3.841-1.839zm72.434-42.34V18.037c-4.833.577-9.232 4.146-11.318 8.717-3.184-2.398-6.037-2.742-8.57-2.742-10.114 0-16.046 8.686-16.046 17.965 0 6.616 1.317 12.284 6.704 16.163-4.065 2.514-7.257 5.611-7.257 11.015 0 4.722 3.63 7.607 7.586 8.757v.223c-4.834 1.964-9.787 4.23-9.787 10.574 0 3.654 4.18 11.12 18.8 11.12 14.834 0 19.888-8.152 19.888-16.333 0-12.12-10.116-14.336-17.71-16-4.564-.999-8.218-1.8-8.218-4.43 0-1.151.218-2.075 1.211-2.647 1.423.463 2.963.572 4.499.572 9.998 0 16.264-8.683 16.264-18.665 0-4.75-1.1-8.351-3.742-11.807 1.103-.908 2.752-1.48 3.855-1.48.87 0 2.628.228 3.841.68zm-20.218 50.49c1.318.115 9.669 1.468 9.669 5.104 0 3.522-3.192 5.56-8.899 5.56-6.699 0-8.68-1.7-8.68-4.534 0-4.085 5.935-5.791 7.91-6.13zm.33-27.438c-3.077 0-4.61-3.126-4.61-10.207 0-7.2 1.533-10.331 4.61-10.331 2.968 0 4.501 3.132 4.501 10.33 0 7.082-1.533 10.208-4.501 10.208zm37.627 30.798c9.847 0 17.504-7.947 17.504-29.773 0-21.816-7.657-29.763-17.504-29.763-9.852 0-17.513 7.947-17.513 29.763 0 21.826 7.661 29.773 17.513 29.773zm0-49.864c2.959 0 3.951 2.53 3.951 20.09 0 17.567-.992 20.103-3.951 20.103-2.963 0-3.951-2.536-3.951-20.102 0-17.56.988-20.091 3.951-20.091zM31.452 24.947H18.755v57.705h12.697v-45.43c.878-1.156 2.51-2.188 4.262-2.188 2.182 0 3.608 1.381 3.608 5.75v41.868h12.694V35.956c0-7.572-2.845-11.927-8.864-11.927-4.712 0-8.536 3.214-11.481 6.42h-.22v-5.502zM0 64.267V.855h12.753v63.412H0zm0 18.386V69.327h12.753v13.326H0zM98.149.855v13.264h12.692V.855H98.149zm0 24.092v57.705h12.692V24.947H98.149z"></path></svg>