<svg version="1" xmlns="http://www.w3.org/2000/svg" width="346.667" height="346.667" viewBox="0 0 260.000000 260.000000"><path d="M113.1 1C57.5 8.8 14.4 49.3 2.4 105.1c-2.6 11.8-2.6 38 0 49.8 5.9 27.3 16.7 47.4 36 66.7 19.3 19.3 39.4 30.1 66.7 36 11.8 2.6 38 2.6 49.8 0 27.3-5.9 47.4-16.7 66.7-36 19.3-19.3 30.1-39.4 36-66.7 1.4-6.2 1.8-12.7 1.8-24.9s-.4-18.7-1.8-24.9c-5.9-27.3-16.7-47.4-36-66.7-19-18.9-38.4-29.6-64.6-35.5C147.1.6 123-.4 113.1 1zm-9.6 50.9c0 .1 2 .3 4.5.5 8.9.7 17 6.9 21.1 16.1 1.8 4 2.2 7.1 2.4 16 .1 6-.2 12.3-.6 13.9-1.2 4.1-5.3 8.1-10.5 10.1-2.4.9-4.4 2.2-4.4 2.7 0 .6.3.8.6.5 1.2-1.1 12.6 5.6 13.4 7.9.5 1.2 1.4 2.5 2 2.9.5.3.8 1.1.4 1.6-.3.5-.1 1.6.5 2.3.7.9 1 7.6.8 19.7-.2 17-.4 18.8-2.6 23.2-2.1 4.3-5.5 7.7-8.5 8.4-.6.1-2.9.7-5.1 1.2-2.2.6-16.7 1.3-32.2 1.7l-28.3.7v-3.9c-.1-6.6-.1-117.7 0-122v-4.1l23.3.2c12.7.1 23.2.3 23.2.4zm106.2 55.8l.1 13.3H190v51.4c0 40.2-.3 51.5-1.2 51.8-.7.2-8.3.4-16.8.3h-15.5l-.2-49.5c-.1-27.2-.2-50.5-.2-51.7-.1-2.1-.6-2.2-9.8-2.5l-9.8-.3.2-11.5c.1-6.3.2-12.2.2-13.1.1-1.5 3.5-1.7 36.4-1.5l36.2.1.2 13.2z"/><path d="M90 87.5V102h3.8c5.6 0 7.1-2.1 7.7-11.4.9-12.9-1.4-17.6-8.4-17.6H90v14.5zM90.2 140.2l.3 18.3 3.2.1c2.2.1 3.9-.6 5.5-2.3 2-2.2 2.2-3.4 2.4-14.4.2-15.9-.5-18.5-5.4-19.3-2-.3-4.3-.6-5-.6-1 0-1.2 4-1 18.2z"/></svg>